<svg xmlns="http://www.w3.org/2000/svg" viewBox="0 0 559.22 897"><defs><style>.cls-1,.cls-2,.cls-3{fill:none;}.cls-2,.cls-3{stroke:#1d1d1b;stroke-width:2px;}.cls-2{stroke-linejoin:round;}.cls-3{stroke-miterlimit:10;}</style></defs><g id="Capa_5" data-name="Capa 5"><rect class="cls-1" x="0.47" width="557.38" height="897"/></g><g id="Capa_6" data-name="Capa 6"><path class="cls-2" d="M353.22,93.22l2.61,8.56-52.1,154.36L231.55,467h144l-34.61-99.64L393,213,559.36,706.4H452.2L412.76,580.69H194.34L149.69,706.4H45.5L251.27,93.22Z" transform="translate(-1.15)"/><path class="cls-2" d="M309.87,117.55l2.6,8.56L260.38,280.47l-72.19,210.8h144l-34.6-99.63,52.09-154.36L516,730.73H408.84L369.4,605H151L106.33,730.73H2.15L207.91,117.55Z" transform="translate(-1.15)"/><line class="cls-3" x1="250.12" y1="93.22" x2="206.77" y2="117.55"/><line class="cls-3" x1="391.89" y1="212.95" x2="348.54" y2="237.28"/><line class="cls-3" x1="339.8" y1="367.31" x2="296.44" y2="391.64"/><line class="cls-3" x1="374.4" y1="466.95" x2="331.05" y2="491.27"/><line class="cls-3" x1="187.05" y1="491.27" x2="230.4" y2="466.95"/><line class="cls-3" x1="308.72" y1="117.55" x2="352.08" y2="93.22"/><line class="cls-3" x1="354.68" y1="101.78" x2="311.33" y2="126.11"/><line class="cls-3" x1="193.19" y1="580.69" x2="149.84" y2="605.02"/><line class="cls-3" x1="148.54" y1="706.4" x2="105.19" y2="730.73"/><line class="cls-3" x1="44.35" y1="706.4" x2="1" y2="730.73"/><line class="cls-3" x1="558.22" y1="706.4" x2="514.86" y2="730.73"/><line class="cls-3" x1="451.05" y1="706.4" x2="407.7" y2="730.73"/><line class="cls-3" x1="411.61" y1="580.69" x2="368.26" y2="605.02"/></g></svg>