<svg xmlns="http://www.w3.org/2000/svg" viewBox="0 0 559.22 897"><g id="Capa_5" data-name="Capa 5"><rect x="1.64" width="557.38" height="897" style="fill:none"/></g><g id="Capa_7" data-name="Capa 7"><path d="M352.05,92.29l2.61,8.56-52.1,154.36L230.38,466h144l-34.61-99.64L391.87,212,558.19,705.47H451L411.59,579.76H193.17L148.52,705.47H44.33L250.1,92.29Z" transform="translate(0.02)" style="fill:none;stroke:#1d1d1b;stroke-linecap:round;stroke-linejoin:round;stroke-width:2px"/><path d="M148.52,705.47,105.16,729.8H1L206.74,116.62,250.1,92.29M558.19,705.47,514.84,729.8H407.68L368.23,604.09H184.53M559,705.47,339.77,366.38,374.38,466H322.57l-26.15-75.31,52.09-154.36L391.87,212Z" transform="translate(0.02)" style="fill:none;stroke:#1d1d1b;stroke-linejoin:round;stroke-width:2px"/><polyline points="559.02 705.47 451.05 705.47 407.7 729.8" style="fill:none;stroke:#1d1d1b;stroke-linejoin:round;stroke-width:2px"/><polyline points="368.26 604.09 411.61 579.76 193.19 579.76 184.55 604.09 148.54 705.47" style="fill:none;stroke:#1d1d1b;stroke-linejoin:round;stroke-width:2px"/><line x1="339.8" y1="366.38" x2="296.44" y2="390.71" style="fill:none;stroke:#1d1d1b;stroke-linejoin:round;stroke-width:2px"/><line x1="44.35" y1="705.47" x2="1" y2="729.8" style="fill:none;stroke:#1d1d1b;stroke-linecap:round;stroke-linejoin:round;stroke-width:2px"/></g></svg>