<svg id="Capa_2" data-name="Capa 2" xmlns="http://www.w3.org/2000/svg" viewBox="0 0 561.22 641.51"><path d="M351.56,92.11l2.61,8.55L302.07,255l-72.18,210.8h144L339.28,366.2l52.1-154.36L557.7,705.29H450.54L411.1,579.58H192.68L148,705.29H43.84L249.61,92.11Z" transform="translate(1.51 -90.11)" style="fill:none;stroke:#1d1d1b;stroke-linecap:round;stroke-linejoin:round;stroke-width:4px"/><path d="M148,705.29l-43.36,24.33H.49L206.26,116.44l43.35-24.33M557.7,705.29l-43.35,24.33H407.19L367.75,603.9H184M558.51,705.29,339.28,366.2l34.61,99.63h-51.8l-26.16-75.3L348,236.17l43.36-24.33Z" transform="translate(1.51 -90.11)" style="fill:none;stroke:#1d1d1b;stroke-linejoin:round;stroke-width:4px"/><polyline points="560.02 615.18 452.05 615.18 408.7 639.51" style="fill:none;stroke:#1d1d1b;stroke-linejoin:round;stroke-width:4px"/><polyline points="369.26 513.79 412.61 489.46 194.19 489.46 185.55 513.79 149.54 615.18" style="fill:none;stroke:#1d1d1b;stroke-linejoin:round;stroke-width:4px"/><line x1="340.8" y1="276.09" x2="297.44" y2="300.42" style="fill:none;stroke:#1d1d1b;stroke-linejoin:round;stroke-width:4px"/><line x1="45.35" y1="615.18" x2="2" y2="639.51" style="fill:none;stroke:#1d1d1b;stroke-linecap:round;stroke-linejoin:round;stroke-width:4px"/></svg>